# xmcd
#
# Track frame offsets:
#	150
#	21012
#	41787
#	60950
#	83350
#	106962
#	128112
#	154425
#	181000
#	202787
#	223750
#	244137
#	267425
#	289250
#	308712
#
# Disc length: 4474 seconds
#
# Revision: 1
# Processed by: cddbd v1.5.1PL0 Copyright (c) Steve Scherf et al.
# Submitted via: CDex 1.50Beta5
#
DISCID=c911780f
DTITLE=さまざまなアーティスト5 - Ballad 5
DYEAR=1900
DGENRE=Pop
TTITLE0=松田 聖子/ボーイの季節
TTITLE1=プリンセス・プリンセス/M
TTITLE2=To Be Continued/君だけを見ていた
TTITLE3=カズン/冬のファンタジー
TTITLE4=久宝留理子/次の夢
TTITLE5=鈴木聖美/TAXI
TTITLE6=小比類巻かほる/I`m Here
TTITLE7=かの/Familia
TTITLE8=渡辺美里/悲しいね
TTITLE9=JUNSKY WALKER/さらば愛式危険たちよ
TTITLE10=米米CLUB/手紙
TTITLE11=VOICE/24時間の神話
TTITLE12=大江千里/ありがとう
TTITLE13=松田 聖子/瞳はダイヤモンド
TTITLE14=TUBE/十年先のラブ・ストーリ
EXTD=
EXTT0=
EXTT1=
EXTT2=
EXTT3=
EXTT4=
EXTT5=
EXTT6=
EXTT7=
EXTT8=
EXTT9=
EXTT10=
EXTT11=
EXTT12=
EXTT13=
EXTT14=
PLAYORDER=
